Coordinates
version=1
nRows=31
nColumns=38
inDegrees=no

Units are S.I. units (second, meters, Newtons, ...)
If the header above contains a line with 'inDegrees', this indicates whether rotational values are in degrees (yes) or radians (no).

endheader
time	pelvis_tilt	pelvis_list	pelvis_rotation	pelvis_tx	pelvis_ty	pelvis_tz	hip_flexion_r	hip_adduction_r	hip_rotation_r	knee_angle_r	ankle_angle_r	subtalar_angle_r	mtp_angle_r	hip_flexion_l	hip_adduction_l	hip_rotation_l	knee_angle_l	ankle_angle_l	subtalar_angle_l	mtp_angle_l	lumbar_extension	lumbar_bending	lumbar_rotation	arm_flex_r	arm_add_r	arm_rot_r	elbow_flex_r	pro_sup_r	wrist_flex_r	wrist_dev_r	arm_flex_l	arm_add_l	arm_rot_l	elbow_flex_l	pro_sup_l	wrist_flex_l	wrist_dev_l
1.09	-0.432389	1.27992	-1.08662	0.867872	0.620624	0.979749	0.24015	0.028772	-0.332117	0.356961	0.14793	0	0	-0.459537	-0.103361	-0.290205	0.164681	0.221871	0	0	-0.482849	0.186286	-0.0453083	0.371571	-0.415807	-0.0201767	1.12074	0.967064	0	0	0.452535	-0.264921	0.021049	1.06443	1.11406	0	0
1.1	-0.427889	1.27881	-1.08426	0.867328	0.607857	0.977495	0.233468	0.0334028	-0.34672	0.3085	0.148197	0	0	-0.471212	-0.108509	-0.291029	0.173907	0.232897	0	0	-0.481253	0.186662	-0.047528	0.367371	-0.415798	-0.0250185	1.1196	0.968414	0	0	0.458761	-0.263987	0.0277342	1.05957	1.12351	0	0
1.11	-0.4214	1.27803	-1.08399	0.866595	0.594728	0.975169	0.225021	0.0387569	-0.357084	0.25904	0.148049	0	0	-0.483236	-0.113618	-0.292278	0.18341	0.2435	0	0	-0.478776	0.186061	-0.051051	0.36464	-0.415348	-0.0280194	1.1164	0.969252	0	0	0.463453	-0.264043	0.0344517	1.05527	1.12886	0	0
1.12	-0.41268	1.27754	-1.08558	0.865825	0.581313	0.972804	0.214478	0.044502	-0.362496	0.208885	0.145856	0	0	-0.495156	-0.118636	-0.293063	0.193574	0.252999	0	0	-0.475826	0.185018	-0.0563711	0.36342	-0.414383	-0.0289199	1.1113	0.970914	0	0	0.466374	-0.264425	0.0394093	1.05212	1.1309	0	0
1.13	-0.403042	1.27642	-1.08755	0.865077	0.567619	0.970473	0.201752	0.0508083	-0.365513	0.16021	0.140109	0	0	-0.507367	-0.124471	-0.293888	0.204945	0.261595	0	0	-0.473423	0.184594	-0.062985	0.362825	-0.41329	-0.0283453	1.10572	0.972608	0	0	0.467516	-0.264696	0.0422144	1.05067	1.12898	0	0
1.14	-0.392511	1.27594	-1.09073	0.864322	0.553618	0.968063	0.189373	0.0563032	-0.366772	0.117064	0.134783	0	0	-0.51867	-0.130122	-0.294641	0.217712	0.269038	0	0	-0.470442	0.183973	-0.0696882	0.361136	-0.412342	-0.0282752	1.10147	0.971823	0	0	0.467159	-0.264573	0.0436274	1.05016	1.12714	0	0
1.15	-0.383062	1.27607	-1.09306	0.863607	0.539281	0.9655	0.17833	0.0609745	-0.367152	0.0822805	0.131917	0	0	-0.523599	-0.137561	-0.300631	0.237245	0.277817	0	0	-0.466573	0.183869	-0.0760434	0.358013	-0.411911	-0.029835	1.09936	0.973191	0	0	0.465683	-0.26386	0.0438179	1.04986	1.13186	0	0
1.16	-0.384331	1.27923	-1.0855	0.863035	0.525279	0.962329	0.176094	0.0680698	-0.36196	0.0606413	0.129267	0	0	-0.523599	-0.140137	-0.296339	0.265644	0.277276	0	0	-0.459965	0.185614	-0.0813939	0.354973	-0.413544	-0.0295523	1.10091	0.955725	0	0	0.464934	-0.266193	0.0549834	1.0528	1.08281	0	0
1.17	-0.375969	1.28473	-1.08896	0.862057	0.51062	0.959391	0.179642	0.0659776	-0.370351	0.0628171	0.140015	0	0	-0.523599	-0.144956	-0.299954	0.29009	0.27858	0	0	-0.45221	0.183314	-0.0856324	0.350735	-0.414925	-0.0317478	1.10244	0.947387	0	0	0.463485	-0.266353	0.0609915	1.05357	1.0604	0	0
1.18	-0.373138	1.28747	-1.08604	0.861792	0.495802	0.95666	0.180731	0.0660998	-0.374588	0.072951	0.143813	0	0	-0.523599	-0.154532	-0.308488	0.319405	0.280627	0	0	-0.446364	0.185038	-0.0900054	0.346918	-0.418573	-0.0319942	1.10488	0.968246	0	0	0.461754	-0.261022	0.0513469	1.0498	1.12217	0	0
1.19	-0.368735	1.28944	-1.08429	0.860982	0.480796	0.954257	0.184562	0.063606	-0.381057	0.100806	0.146178	0	0	-0.523599	-0.164574	-0.31777	0.349602	0.279951	0	0	-0.441515	0.187116	-0.094902	0.3436	-0.423165	-0.0304461	1.10808	0.96628	0	0	0.459237	-0.258779	0.0524259	1.04959	1.11774	0	0
1.2	-0.363075	1.29024	-1.08282	0.860662	0.465288	0.951719	0.1857	0.0615848	-0.381333	0.131555	0.139006	0	0	-0.523599	-0.176813	-0.326916	0.383296	0.275898	0	0	-0.436596	0.190179	-0.101481	0.340437	-0.427731	-0.0287617	1.11138	0.964264	0	0	0.454899	-0.256884	0.0524093	1.05021	1.11164	0	0
1.21	-0.357062	1.28875	-1.08146	0.860253	0.449599	0.949324	0.182645	0.0616569	-0.379185	0.155608	0.115853	0	0	-0.523599	-0.192035	-0.337011	0.421664	0.268284	0	0	-0.433611	0.194225	-0.108472	0.337976	-0.43163	-0.0273599	1.11448	0.961815	0	0	0.449521	-0.256049	0.052101	1.05202	1.10355	0	0
1.22	-0.355129	1.28401	-1.07912	0.859326	0.434229	0.947445	0.17856	0.0646391	-0.377004	0.173814	0.0670373	0	0	-0.523599	-0.209806	-0.346826	0.464997	0.254239	0	0	-0.435103	0.199439	-0.11198	0.337937	-0.434488	-0.0260148	1.11653	0.958277	0	0	0.444764	-0.255879	0.0519976	1.05436	1.09325	0	0
1.23	-0.361782	1.27588	-1.07384	0.857746	0.419597	0.946683	0.178243	0.0696149	-0.372233	0.199963	0.00454081	0	0	-0.523599	-0.227631	-0.349805	0.51029	0.229929	0	0	-0.442621	0.20645	-0.109303	0.341897	-0.435385	-0.0263627	1.11573	0.969839	0	0	0.441477	-0.253367	0.0459902	1.05486	1.11625	0	0
1.24	-0.380188	1.2631	-1.06234	0.856039	0.405451	0.947172	0.183863	0.0756509	-0.367474	0.250582	-0.037437	0	0	-0.523599	-0.246953	-0.34653	0.56048	0.196821	0	0	-0.455756	0.217376	-0.101077	0.350037	-0.437086	-0.0213791	1.11368	0.967833	0	0	0.43791	-0.251089	0.0425201	1.05709	1.11443	0	0
1.25	-0.385325	1.25076	-1.06741	0.854626	0.391018	0.94821	0.199476	0.0702802	-0.368373	0.339491	-0.0302101	0	0	-0.523599	-0.257129	-0.327534	0.612236	0.158558	0	0	-0.468766	0.222964	-0.0926759	0.35869	-0.437065	-0.0149414	1.10936	0.937072	0	0	0.432857	-0.253223	0.05147	1.06143	1.04012	0	0
1.26	-0.394244	1.24018	-1.06361	0.853207	0.376518	0.949568	0.209181	0.0690956	-0.356588	0.410578	-0.0193392	0	0	-0.512409	-0.281244	-0.319518	0.676819	0.116342	0	0	-0.480152	0.230596	-0.0882337	0.366966	-0.44017	-0.00407304	1.10571	0.961606	0	0	0.431053	-0.247672	0.03588	1.05516	1.10519	0	0
1.27	-0.397238	1.24081	-1.06374	0.852057	0.362639	0.949862	0.226231	0.0632313	-0.343514	0.474017	-0.0110955	0	0	-0.479289	-0.291045	-0.297592	0.751674	0.0638312	0	0	-0.482649	0.231128	-0.0877862	0.373357	-0.441404	0.00283257	1.10233	0.958787	0	0	0.432749	-0.248058	0.0367168	1.05024	1.09762	0	0
1.28	-0.395322	1.24122	-1.06905	0.850518	0.348882	0.95003	0.232813	0.0606364	-0.332771	0.514853	-0.0199192	0	0	-0.444491	-0.298575	-0.275038	0.826925	0.00833502	0	0	-0.486268	0.228758	-0.085873	0.377412	-0.442481	0.00609055	1.10074	0.960828	0	0	0.43675	-0.248876	0.0380326	1.04338	1.09985	0	0
1.29	-0.390209	1.23983	-1.07894	0.848578	0.335443	0.950301	0.228441	0.0615699	-0.326387	0.535621	-0.0359789	0	0	-0.410964	-0.304473	-0.254858	0.899163	-0.0515656	0	0	-0.493051	0.224616	-0.0809356	0.379889	-0.444092	0.00758374	1.10233	0.961345	0	0	0.441503	-0.250266	0.0410469	1.03863	1.09749	0	0
1.3	-0.381235	1.23848	-1.09583	0.846208	0.322202	0.950594	0.218582	0.0637118	-0.320506	0.546681	-0.0443602	0	0	-0.379354	-0.306494	-0.238569	0.965318	-0.112989	0	0	-0.500685	0.217175	-0.0722458	0.380798	-0.445846	0.00791961	1.10607	0.961148	0	0	0.445328	-0.25185	0.0451444	1.03703	1.0927	0	0
1.31	-0.363443	1.23812	-1.12456	0.843633	0.308985	0.950933	0.206675	0.0632733	-0.31233	0.556534	-0.039332	0	0	-0.351296	-0.301499	-0.224983	1.02313	-0.169104	0	0	-0.507829	0.204894	-0.0612956	0.380685	-0.447151	0.00631366	1.10983	0.961635	0	0	0.448147	-0.252878	0.0490773	1.03733	1.0871	0	0
1.32	-0.33763	1.23843	-1.1645	0.84092	0.295746	0.951402	0.194361	0.0612271	-0.297255	0.567154	-0.028101	0	0	-0.327457	-0.290003	-0.215131	1.0735	-0.205591	0	0	-0.514224	0.18826	-0.0485851	0.38037	-0.447547	0.00355551	1.11117	0.962406	0	0	0.450593	-0.253225	0.0521024	1.0378	1.08287	0	0
1.33	-0.308506	1.23882	-1.21082	0.838087	0.282587	0.952053	0.184287	0.059202	-0.273379	0.582228	-0.0138068	0	0	-0.306315	-0.274999	-0.210324	1.11895	-0.209337	0	0	-0.520057	0.169126	-0.0342439	0.380104	-0.447625	0.00286752	1.11073	0.951699	0	0	0.453193	-0.254122	0.0567719	1.03845	1.06911	0	0
1.34	-0.262177	1.23305	-1.27298	0.835654	0.270102	0.954074	0.168359	0.0526824	-0.246019	0.600403	-0.000875285	0	0	-0.294263	-0.241642	-0.184965	1.15175	-0.186109	0	0	-0.534846	0.146978	-0.0230296	0.383704	-0.445489	0.00146074	1.10687	0.950313	0	0	0.45819	-0.255171	0.0580918	1.03812	1.0721	0	0
1.35	-0.235609	1.2288	-1.31724	0.83343	0.257545	0.955672	0.159544	0.0520159	-0.213329	0.623608	0.0129119	0	0	-0.278667	-0.225423	-0.185273	1.18404	-0.152756	0	0	-0.54473	0.130617	-0.010277	0.388748	-0.444675	0.00180177	1.10206	0.948886	0	0	0.460881	-0.255491	0.0588633	1.03784	1.07408	0	0
1.36	-0.214661	1.22271	-1.35308	0.831723	0.245188	0.957653	0.147764	0.0523403	-0.184532	0.642822	0.0246986	0	0	-0.263428	-0.211264	-0.184756	1.20982	-0.120733	0	0	-0.555621	0.118249	-0.0005754	0.395983	-0.444181	0.00448759	1.09652	0.949323	0	0	0.462797	-0.255532	0.0583516	1.03719	1.07489	0	0
1.37	-0.197649	1.2171	-1.38359	0.830257	0.232942	0.959761	0.133982	0.0523019	-0.160255	0.656589	0.0368601	0	0	-0.246551	-0.198427	-0.184523	1.22979	-0.0942595	0	0	-0.565174	0.107707	0.00709362	0.403968	-0.443655	0.00977206	1.08986	0.95075	0	0	0.463816	-0.255176	0.0563554	1.03585	1.07568	0	0
1.38	-0.18286	1.21053	-1.40689	0.829317	0.220706	0.962129	0.114907	0.050526	-0.146868	0.662589	0.0487227	0	0	-0.22892	-0.188302	-0.182226	1.24418	-0.0747256	0	0	-0.574695	0.100474	0.0102963	0.411617	-0.442839	0.0149333	1.08318	0.959106	0	0	0.464516	-0.254198	0.0532769	1.03346	1.0766	0	0
1.39	-0.167616	1.20462	-1.42694	0.828676	0.20845	0.96451	0.0937585	0.0466889	-0.140143	0.664117	0.0609257	0	0	-0.20933	-0.179559	-0.178912	1.25373	-0.0605249	0	0	-0.582663	0.0943773	0.0103737	0.417671	-0.441745	0.0188748	1.07791	0.962157	0	0	0.465139	-0.253084	0.0504254	1.03035	1.07528	0	0
